<svg width="40" height="40" viewBox="0 0 40 40" fill="none" xmlns="http://www.w3.org/2000/svg">
<path fill-rule="evenodd" clip-rule="evenodd" d="M18.633 0.0727749C14.6732 0.448932 10.6796 2.42861 8.02935 5.32901C5.11107 8.52286 3.58723 12.4052 3.58332 16.6561C3.58144 18.6688 3.80437 20.1445 4.37438 21.8928C4.84079 23.3233 5.70359 25.0835 6.47043 26.1693L6.77829 26.6051L5.824 28.2651C5.29914 29.1782 3.78538 31.8107 2.45993 34.1154C-0.205032 38.7494 -0.189483 38.7139 0.169951 39.3428C0.397878 39.7416 0.929449 40.035 1.3328 39.9846C1.48727 39.9654 3.18614 39.252 5.10818 38.3993L8.60265 36.849L8.89043 37.1246C9.04874 37.2762 9.77526 37.9529 10.5048 38.6284C11.9069 39.9263 12.1546 40.0776 12.7086 39.9732C13.213 39.8781 13.4473 39.5506 15.2243 36.4559C16.1718 34.8059 16.9928 33.3927 17.0489 33.3158C17.1461 33.1823 17.1965 33.1817 18.1263 33.305C18.8938 33.4067 19.435 33.4237 20.6645 33.3846C21.524 33.3572 22.386 33.3152 22.58 33.2913L22.9327 33.2477L24.7146 36.3507C25.8632 38.3507 26.5914 39.5374 26.763 39.6888C27.0814 39.9696 27.4452 40.0526 27.8603 39.9393C28.1642 39.8563 28.298 39.7422 30.6089 37.5945L31.411 36.8489L34.9009 38.3995C36.8203 39.2523 38.5163 39.9658 38.6697 39.985C39.0712 40.0349 39.6034 39.7406 39.8308 39.3428C40.1969 38.7023 40.2833 38.8869 36.6954 32.6463C34.905 29.532 33.44 26.9612 33.44 26.9332C33.44 26.9053 33.7028 26.4862 34.024 26.0018C37.9554 20.0724 37.7452 12.3891 33.4958 6.69489C30.0371 2.06022 24.3563 -0.47086 18.633 0.0727749ZM21.4459 2.57772C28.3889 3.23523 33.8092 8.77628 34.2897 15.7074C34.7924 22.9585 29.8311 29.3706 22.6775 30.7153C21.6208 30.9139 19.3799 30.9536 18.2813 30.7931C12.7511 29.985 8.21024 26.0823 6.64569 20.7928C5.95144 18.4456 5.88877 15.5838 6.48051 13.2559C6.86073 11.7602 7.54373 10.2189 8.4141 8.89235C11.2658 4.54609 16.3283 2.09302 21.4459 2.57772ZM19.7831 6.4403C19.2599 6.60864 19.1275 6.87485 18.3217 9.37893C17.9078 10.6652 17.454 12.0708 17.3132 12.5025L17.0572 13.2873L13.6647 13.3265C10.3086 13.3653 10.2692 13.3676 9.98748 13.5436C9.50178 13.8469 9.29651 14.6054 9.56203 15.1159C9.73127 15.4413 9.9399 15.6073 12.5382 17.4839C13.8705 18.4461 14.9909 19.261 15.0281 19.2947C15.0653 19.3285 14.631 20.7869 14.0631 22.5356C12.9298 26.0249 12.9173 26.0951 13.3362 26.5953C13.7197 27.053 14.3535 27.1972 14.8494 26.9397C14.9774 26.8732 16.0745 26.091 17.2873 25.2015C18.5001 24.3119 19.6522 23.4682 19.8473 23.3264L20.2022 23.0688L22.504 24.76C25.583 27.0222 25.6428 27.0606 26.0957 27.0606C26.7019 27.0606 27.2403 26.5915 27.3192 25.9943C27.3521 25.7454 27.1645 25.0879 26.3289 22.5232C25.7618 20.7829 25.3103 19.3471 25.3254 19.3322C25.3599 19.2982 26.4441 18.5093 28.5955 16.9527C30.4303 15.6251 30.6648 15.4323 30.8294 15.1159C31.0969 14.6015 30.8771 13.8152 30.3839 13.5227C30.1332 13.374 29.9403 13.3637 26.7267 13.3265L23.3342 13.2873L23.1177 12.6202C22.9986 12.2533 22.5456 10.8487 22.111 9.49885C21.2503 6.82509 21.1406 6.60801 20.5616 6.43378C20.2082 6.32744 20.1316 6.32807 19.7831 6.4403ZM20.7424 13.4028C21.3461 15.2604 21.3957 15.3708 21.7378 15.6159C21.984 15.7922 22.0597 15.8001 23.8983 15.8379L25.8039 15.8771L24.3565 16.927C22.8268 18.0364 22.5771 18.3042 22.5808 18.8308C22.5818 18.976 22.8231 19.8365 23.117 20.7429C23.4108 21.6494 23.6406 22.4037 23.6275 22.4192C23.6144 22.4347 22.9677 21.9813 22.1904 21.4117C21.4132 20.842 20.6502 20.3406 20.495 20.2976C20.0122 20.1637 19.7151 20.31 18.1683 21.443C17.3593 22.0357 16.7151 22.4737 16.737 22.4165C16.9996 21.7275 17.8125 19.0138 17.8125 18.8262C17.8125 18.2902 17.5888 18.0495 16.0559 16.9366L14.5967 15.8771L16.5014 15.8379C18.6013 15.7946 18.6773 15.7773 18.9843 15.2702C19.0659 15.1353 19.3693 14.29 19.6585 13.3917C19.9477 12.4935 20.1924 11.767 20.2023 11.7774C20.2122 11.7877 20.4552 12.5192 20.7424 13.4028ZM10.2673 30.1214C11.4389 30.9939 12.5786 31.6422 13.9447 32.2131C14.2885 32.3567 14.5601 32.5127 14.5482 32.5597C14.5228 32.6604 12.3973 36.3737 12.2471 36.5799C12.1534 36.7085 12.0339 36.6184 10.8665 35.537C10.1636 34.8859 9.48154 34.2976 9.3509 34.2298C8.92762 34.0099 8.5217 34.1268 6.36604 35.0891C5.24906 35.5878 4.32531 35.9858 4.3132 35.9737C4.29398 35.9543 8.10687 29.2778 8.40871 28.8022L8.52365 28.6212L9.04139 29.1076C9.32621 29.3752 9.87786 29.8314 10.2673 30.1214ZM33.7077 32.4675C34.8087 34.3837 35.6999 35.9602 35.6882 35.9705C35.6765 35.9809 34.7528 35.5827 33.6354 35.0855C31.4925 34.1319 31.0722 34.0104 30.6595 34.2248C30.5342 34.2899 29.8527 34.8789 29.1453 35.5338C27.9629 36.6285 27.8506 36.7131 27.7551 36.5818C27.6242 36.4021 25.47 32.6506 25.47 32.6024C25.47 32.5829 25.6546 32.507 25.8802 32.4338C26.4852 32.2377 28.2272 31.3855 28.9643 30.9254C29.7019 30.4649 30.6465 29.7555 31.2131 29.2365C31.428 29.0397 31.6268 28.9022 31.6548 28.931C31.6829 28.9598 32.6067 30.5513 33.7077 32.4675Z" fill="#F14294"/>
</svg>
