<svg width="40" height="40" viewBox="0 0 40 40" fill="none" xmlns="http://www.w3.org/2000/svg">
<path fill-rule="evenodd" clip-rule="evenodd" d="M19.3011 0.0753828C16.1585 0.409742 13.0859 1.90182 10.9435 4.1338C9.26971 5.87756 8.06397 8.29973 7.783 10.4826L7.72523 10.9319H6.92205C5.93736 10.9319 5.53709 11.0833 5.27462 11.555C5.11628 11.8397 5.10307 12.0132 5.10307 13.8113V15.7592L4.81444 15.8089C4.335 15.8913 3.47678 16.2418 2.88869 16.5953C1.6013 17.3693 0.747846 18.4311 0.218217 19.918C0.0400265 20.4182 0.0368735 20.5341 0.010456 27.5366C-0.018859 35.301 -0.0197112 35.2851 0.472933 36.3583C1.11479 37.7566 2.43422 38.9684 3.9528 39.5539C5.16008 40.0194 4.45525 39.9999 20.0162 39.9999C35.3899 39.9999 34.8266 40.014 35.985 39.5983C37.4509 39.0723 38.8267 37.8549 39.4963 36.4913C40.0225 35.4196 39.9998 35.8125 39.9998 27.8101C39.9998 19.8313 40.0259 20.2982 39.5166 19.1757C39.049 18.1452 37.9561 17.0174 36.8467 16.4206C36.2787 16.115 35.3396 15.7766 35.0599 15.7766C34.9461 15.7766 34.9293 15.525 34.9293 13.82C34.9293 12.0132 34.9162 11.8398 34.7578 11.555C34.499 11.0899 34.0917 10.9319 33.1515 10.9319H32.3895L32.329 10.4436C32.18 9.24093 31.593 8.12517 30.6586 7.26837C29.9598 6.6277 29.3407 6.28912 27.9085 5.76442C26.8739 5.38536 26.7493 5.31691 26.2293 4.84206C25.8074 4.45683 25.6212 4.21522 25.4814 3.87133C25.2074 3.19776 25.1653 2.6275 25.3449 2.02286C25.4277 1.74413 25.5124 1.38914 25.5332 1.23404C25.588 0.825054 25.2984 0.347387 24.8758 0.149694C24.5613 0.00255671 24.389 -0.00689818 22.214 0.00263485C20.9348 0.00833904 19.6241 0.0410795 19.3011 0.0753828ZM22.6862 3.03117C22.8179 4.73211 23.7576 6.25162 25.2401 7.16085C25.5827 7.37089 26.3741 7.73088 26.9989 7.96076C27.6238 8.19065 28.2925 8.48891 28.4849 8.62347C29.1704 9.10293 29.6178 9.7997 29.7789 10.6389L29.8352 10.9319H20.0608H10.2864L10.3427 10.5999C10.5802 9.20061 11.3961 7.42707 12.3295 6.28139C13.8832 4.37431 16.2854 2.98093 18.7805 2.53944C19.7547 2.36714 19.832 2.36128 21.303 2.34831L22.6325 2.33659L22.6862 3.03117ZM32.3728 14.4482V15.6203H20.0162H7.65961V14.4482V13.2761H20.0162H32.3728V14.4482ZM34.4351 18.0516C35.8948 18.3331 37.0751 19.416 37.3892 20.7618C37.5233 21.3365 37.5252 34.2717 37.3913 34.8584C37.2547 35.4568 36.764 36.2672 36.2948 36.6696C35.8129 37.0829 35.0617 37.4457 34.4351 37.5678C33.791 37.6932 6.23656 37.6925 5.59725 37.5671C4.13321 37.2798 2.95652 36.2008 2.64318 34.8584C2.50725 34.2759 2.50725 21.3443 2.64318 20.7618C2.80253 20.079 3.13761 19.5238 3.69681 19.0158C4.24391 18.5188 4.77839 18.238 5.48655 18.0755C6.06825 17.9421 33.7486 17.9192 34.4351 18.0516ZM5.76445 20.4698C5.56973 20.5641 5.37918 20.7439 5.27445 20.9321C5.10682 21.2335 5.10307 21.3823 5.10307 27.8101C5.10307 34.2405 5.10674 34.3866 5.27462 34.6884C5.38506 34.887 5.56606 35.0529 5.7826 35.1542C6.11555 35.3099 6.25607 35.3115 20.0162 35.3115C33.7763 35.3115 33.9168 35.3099 34.2498 35.1542C34.4663 35.0529 34.6473 34.887 34.7578 34.6884C34.9256 34.3866 34.9293 34.2405 34.9293 27.8101C34.9293 21.3797 34.9256 21.2336 34.7578 20.9318C34.6473 20.7332 34.4663 20.5673 34.2498 20.466C33.9168 20.3102 33.7801 20.3087 19.9983 20.3121C6.31223 20.3156 6.0778 20.3182 5.76445 20.4698ZM32.3728 27.8101V32.9673H20.0162H7.65961V27.8101V22.6529H20.0162H32.3728V27.8101Z" fill="#F14294"/>
</svg>
