<svg width="40" height="40" viewBox="0 0 40 40" fill="none" xmlns="http://www.w3.org/2000/svg">
<path fill-rule="evenodd" clip-rule="evenodd" d="M8.12315 0.0680016C5.5821 0.383188 3.21787 1.69137 1.78716 3.57397C0.698231 5.00681 -0.011654 7.22866 0.000144863 9.16706L0.0035048 9.71616L2.38336 12.7143L4.76321 15.7125L4.76431 21.5064C4.76556 28.3762 4.83018 30.0524 5.23884 33.826C5.42864 35.5789 5.54584 36.4435 5.86613 38.4565L6.11172 40H9.45134H12.791L12.8402 39.7069C13.2209 37.4415 13.6592 33.9 13.8246 31.755C13.871 31.1532 13.9282 30.4766 13.9518 30.2514L13.9945 29.8419L14.4384 30.1426C16.2537 31.3726 18.4634 32.2449 20.8206 32.6622C21.6712 32.8128 22.1096 32.842 23.5164 32.842C25.4118 32.842 26.4751 32.6994 28.1265 32.2234C33.246 30.748 37.464 26.7079 39.1364 21.6778C40.2847 18.2239 40.2879 14.7768 39.1458 11.3091C37.546 6.45176 33.6825 2.55057 28.8228 0.88547C25.1494 -0.373244 21.2268 -0.287902 17.6627 1.12813C17.1648 1.32601 16.4995 1.62182 16.1842 1.78547L15.6109 2.08307L15.002 1.6684C13.9598 0.958542 12.6618 0.425937 11.3723 0.178977C10.5883 0.0287694 8.90336 -0.0287504 8.12315 0.0680016ZM11.3361 2.59356C13.6235 3.17774 15.2821 4.60769 16.021 6.63268C16.2616 7.29212 16.5217 8.58632 16.4606 8.82007C16.441 8.89494 15.5191 10.1208 14.4119 11.544C12.7799 13.6417 12.3638 14.1317 12.2144 14.1317C12.113 14.1317 12.0307 14.0878 12.0314 14.034C12.0321 13.9804 12.2376 12.713 12.4881 11.2177C12.7385 9.72241 12.9225 8.4866 12.8969 8.47136C12.8061 8.41735 10.6991 8.09068 10.6644 8.12522C10.6451 8.1446 10.4069 9.49522 10.1351 11.1266C9.64341 14.077 9.63981 14.0927 9.4515 14.0927C9.26319 14.0927 9.25959 14.077 8.76795 11.1266C8.4961 9.49522 8.25786 8.1446 8.23856 8.12522C8.20395 8.09068 6.09687 8.41735 6.00608 8.47136C5.98053 8.4866 6.16446 9.72241 6.4149 11.2177C6.66541 12.713 6.87091 13.9804 6.87161 14.034C6.87232 14.0878 6.78941 14.1317 6.68736 14.1317C6.53695 14.1317 6.10633 13.6324 4.41456 11.4961L2.32726 8.86063L2.37812 8.42869C2.76881 5.10981 4.96168 2.88014 8.29896 2.40865C9.11097 2.29392 10.492 2.37801 11.3361 2.59356ZM24.9845 2.4142C28.369 2.78612 31.3464 4.25366 33.7145 6.71708C37.3957 10.5466 38.6026 16.0361 36.8689 21.0648C35.1749 25.9788 30.8528 29.5548 25.587 30.3994C24.7693 30.5306 22.2501 30.5292 21.4457 30.3971C20.5374 30.2479 19.1869 29.888 18.4725 29.6047C17.064 29.0462 15.4549 28.1005 14.55 27.2996L14.1398 26.9365V25.2689V23.6014L15.2142 24.6729C16.4199 25.8752 17.1758 26.4186 18.5555 27.0745C19.4793 27.5137 20.3479 27.7952 21.4654 28.0174C22.4431 28.2119 24.5377 28.2101 25.587 28.0139C28.0089 27.561 30.1221 26.4489 31.8381 24.7244C33.5632 22.9906 34.5774 21.1197 35.0958 18.7152C35.3412 17.5764 35.3419 15.3791 35.0971 14.2439C34.7491 12.6304 34.2062 11.3229 33.3365 10.0044C32.1447 8.19728 30.6098 6.85252 28.6344 5.88453C26.8844 5.02697 25.583 4.72687 23.5945 4.72226C21.7571 4.71796 20.5685 4.96031 18.9616 5.66696C18.6207 5.81685 18.3163 5.91009 18.2852 5.87406C18.2542 5.83803 18.1706 5.65015 18.0995 5.45649C18.0284 5.26275 17.8117 4.82604 17.6179 4.48593C17.4241 4.14581 17.2754 3.85766 17.2875 3.84563C17.2995 3.83359 17.6775 3.6665 18.1273 3.47441C19.4447 2.91187 20.754 2.56964 22.3052 2.38255C22.8318 2.31901 24.2732 2.33605 24.9845 2.4142ZM24.9465 7.13629C25.3678 7.19983 26.032 7.35887 26.4226 7.48969C30.1904 8.75231 32.7297 12.0692 32.9433 16.0074C33.1721 20.2283 30.4919 24.0799 26.4132 25.3915C24.0866 26.1396 21.4985 25.9471 19.3529 24.8665C17.5493 23.9581 16.0359 22.4444 15.1276 20.6405C14.5219 19.4372 14.2234 18.2347 14.1622 16.7498L14.1203 15.7339L16.4742 12.7089L18.8281 9.68404V9.02397V8.36398L19.1003 8.2033C19.8654 7.75181 21.3476 7.24461 22.3052 7.10659C23.0499 6.99921 24.1169 7.01125 24.9465 7.13629ZM11.7956 17.6486V18.8209H9.4515H7.10736V17.6486V16.4763H9.4515H11.7956V17.6486ZM11.7949 23.6467C11.7937 27.2334 11.6555 30.0811 11.3216 33.3962C11.1743 34.8581 10.91 36.9505 10.8105 37.4423L10.7666 37.6591L9.42571 37.6377L8.08486 37.6164L7.91632 36.4441C7.37006 32.6443 7.18323 29.9637 7.13064 25.1707L7.08665 21.1654H9.44111H11.7956L11.7949 23.6467Z" fill="#F14294"/>
</svg>
