<svg width="40" height="40" viewBox="0 0 40 40" fill="none" xmlns="http://www.w3.org/2000/svg">
<path fill-rule="evenodd" clip-rule="evenodd" d="M10.4039 0.809744C6.54644 4.01329 3.16554 8.61356 1.47785 12.9548C-0.768807 18.7341 -0.449374 24.577 2.40516 29.9151C3.94182 32.7887 5.66025 34.9745 8.61732 37.8169C10.0574 39.2013 10.5096 39.5893 10.8957 39.772L11.3773 40L14.2163 39.9969C16.4073 39.9946 17.333 39.9622 18.2718 39.8552C21.9947 39.4306 24.558 38.7444 27.357 37.4232C29.634 36.3484 31.2906 35.189 33.078 33.4191C36.8942 29.6402 39.2096 24.3373 39.9021 17.7901C40.0228 16.6483 40.0352 12.696 39.9206 11.8878L39.8488 11.3816L39.4838 11.3073C39.2831 11.2665 37.9142 11.2307 36.442 11.2278C33.7197 11.2224 32.708 11.2911 30.6828 11.619C27.9086 12.0682 25.1067 12.9034 22.8146 13.9644C22.3684 14.1709 21.9719 14.3419 21.9334 14.3445C21.8949 14.347 21.7092 13.9268 21.5209 13.4107C21.0679 12.1696 20.8504 11.6872 20.0926 10.2434C18.5877 7.37637 16.5235 4.67349 13.9381 2.1848C12.8995 1.18497 11.5183 -0.00568844 11.404 2.04504e-05C11.3893 0.000724286 10.9393 0.365155 10.4039 0.809744ZM10.1812 28.1263L10.1605 36.0773L9.13297 34.9887C6.99679 32.7256 5.68629 30.9466 4.55603 28.775C2.12272 24.0999 1.77725 19.3611 3.51304 14.4664C4.70503 11.1051 6.92728 7.60965 9.66809 4.78477L10.1605 4.27723L10.1812 12.2263C10.1926 16.5983 10.1926 23.7532 10.1812 28.1263ZM14.5714 6.37231C17.7082 10.1256 19.5963 14.0251 20.2321 18.0638C20.426 19.2961 20.4256 21.685 20.2311 22.9124C19.9089 24.946 19.3542 26.6251 18.3578 28.5822C17.1246 31.0043 15.6338 33.0092 13.2113 35.5033L12.6416 36.0898L12.642 20.1753L12.6423 4.2608L13.2146 4.84733C13.5294 5.16993 14.14 5.85616 14.5714 6.37231ZM28.7799 20.3676C24.8782 24.1295 21.677 27.1987 21.6661 27.1882C21.6553 27.1778 21.7719 26.7879 21.9254 26.3217C22.2494 25.3376 22.5548 23.9862 22.7047 22.8733C22.8555 21.7544 22.8331 18.9462 22.6648 17.8742C22.591 17.4044 22.5307 16.956 22.5307 16.8778C22.5307 16.6204 25.0251 15.5087 26.9515 14.9076C29.4871 14.1163 32.7177 13.5844 35.2656 13.5388L35.8739 13.528L28.7799 20.3676ZM37.5771 16.0109C37.1665 22.1693 35.5269 26.8682 32.5127 30.5251C29.7206 33.9127 25.5764 36.2103 20.5839 37.139C18.952 37.4426 16.4352 37.6902 14.9607 37.6922L14.4073 37.693L15.3663 36.6959C16.5606 35.4542 37.471 15.2485 37.5618 15.2485C37.5982 15.2485 37.6051 15.5915 37.5771 16.0109Z" fill="#F14294"/>
</svg>
