<svg width="15" height="26" viewBox="0 0 15 26" fill="none" xmlns="http://www.w3.org/2000/svg">
<path fill-rule="evenodd" clip-rule="evenodd" d="M14.957 24.6102C14.8315 25.1364 14.4279 25.6138 13.9065 25.8525C13.6442 25.9725 13.5318 25.9936 13.1603 25.9926C12.3374 25.9902 12.8932 26.4785 6.25493 19.9263C2.25136 15.9746 0.312015 14.0261 0.225459 13.8683C0.0233732 13.4999 -0.0476421 13.0648 0.0318638 12.682C0.068195 12.5071 0.155318 12.2594 0.225459 12.1315C0.312015 11.9738 2.25136 10.0253 6.25493 6.07352C12.8937 -0.479216 12.3378 0.0091933 13.1603 0.00771896C13.5328 0.00705713 13.6453 0.0284213 13.9185 0.151821C14.8637 0.578785 15.2636 1.71664 14.796 2.6488C14.7295 2.78131 12.9056 4.62193 9.56646 7.92609L4.43894 12.9999L9.56646 18.0737C12.9186 21.3908 14.7291 23.218 14.7956 23.351C14.9891 23.7382 15.0506 24.2178 14.957 24.6102Z" fill="url(#paint0_linear_259_286)"/>
<defs>
<linearGradient id="paint0_linear_259_286" x1="7.5" y1="26" x2="7.5" y2="-3.27835e-07" gradientUnits="userSpaceOnUse">
<stop stop-color="#0ACFFE"/>
<stop offset="1" stop-color="#495AFF"/>
</linearGradient>
</defs>
</svg>
