<svg width="15" height="26" viewBox="0 0 15 26" fill="none" xmlns="http://www.w3.org/2000/svg">
<path fill-rule="evenodd" clip-rule="evenodd" d="M0.0430043 24.6102C0.168465 25.1364 0.572121 25.6138 1.09352 25.8525C1.35576 25.9725 1.46815 25.9936 1.8397 25.9926C2.6626 25.9902 2.10683 26.4785 8.74507 19.9263C12.7486 15.9746 14.688 14.0261 14.7745 13.8683C14.9766 13.4999 15.0476 13.0648 14.9681 12.682C14.9318 12.5071 14.8447 12.2594 14.7745 12.1315C14.688 11.9738 12.7486 10.0253 8.74507 6.07352C2.10626 -0.479216 2.66224 0.0091933 1.83969 0.00771896C1.46717 0.00705713 1.35468 0.0284213 1.08148 0.151821C0.13625 0.578785 -0.263598 1.71664 0.204023 2.6488C0.270459 2.78131 2.09442 4.62193 5.43354 7.92609L10.5611 12.9999L5.43354 18.0737C2.08135 21.3908 0.270871 23.218 0.204384 23.351C0.010893 23.7382 -0.0505508 24.2178 0.0430043 24.6102Z" fill="url(#paint0_linear_259_294)"/>
<defs>
<linearGradient id="paint0_linear_259_294" x1="7.5" y1="26" x2="7.5" y2="-3.27835e-07" gradientUnits="userSpaceOnUse">
<stop stop-color="#0ACFFE"/>
<stop offset="1" stop-color="#495AFF"/>
</linearGradient>
</defs>
</svg>
