<svg width="33" height="42" viewBox="0 0 33 42" fill="none" xmlns="http://www.w3.org/2000/svg">
<g filter="url(#filter0_d_204_924)">
<path fill-rule="evenodd" clip-rule="evenodd" d="M12.9886 4.05646C11.5048 4.30842 10.2208 5.27544 9.58777 6.61778C9.18764 7.46623 9.02305 8.66646 9.27246 8.91742C9.42232 9.06821 9.75835 9.0729 9.90402 8.92633C9.98063 8.84923 10.0234 8.68702 10.0526 8.36318C10.1738 7.01743 10.9145 5.89863 12.0728 5.3117C12.6612 5.01351 13.1388 4.91703 13.8717 4.9482C14.6216 4.98012 15.1723 5.15815 15.7501 5.55546C16.685 6.19822 17.2422 7.1667 17.3409 8.32041C17.3866 8.85456 17.5053 9.03459 17.8116 9.03459C18.1351 9.03459 18.2381 8.87413 18.2381 8.37027C18.2381 7.21813 17.5829 5.87192 16.6329 5.07216C15.6411 4.23719 14.234 3.84498 12.9886 4.05646ZM13.0628 7.43149C12.7517 7.58749 12.502 7.86646 12.3095 8.27302C12.2209 8.46031 12.2113 9.07735 12.1985 15.3907C12.1908 19.1927 12.1708 22.3622 12.154 22.4342C12.1146 22.6031 11.8217 22.7566 11.6309 22.7084C11.5336 22.6838 11.187 22.3071 10.5922 21.5795C9.61875 20.3887 9.4105 20.1789 8.98673 19.9629C8.10728 19.5144 7.04258 19.6852 6.25354 20.4013L6 20.6314L8.77859 26.0075C10.3068 28.9644 11.6781 31.5682 11.8258 31.7937C12.534 32.8751 13.707 33.6654 14.9625 33.9071C15.6328 34.0362 22.3673 34.0285 22.9999 33.8979C23.9113 33.7099 24.6563 33.3187 25.3333 32.6727C26.0512 31.9877 26.5242 31.2111 26.8395 30.1996L27 29.6848V23.973V18.2613L26.8421 17.991C26.3115 17.0828 25.2194 16.9063 24.4769 17.6088C24.0866 17.9781 24.036 18.1528 24.0027 19.2477L23.9726 20.2341L23.8093 20.3754C23.6125 20.5456 23.4218 20.5554 23.2368 20.4048C23.1002 20.2937 23.0992 20.2831 23.0703 18.7792C23.0435 17.3886 23.031 17.2432 22.9159 16.9926C22.5336 16.1606 21.5868 15.8358 20.8579 16.2866C20.5697 16.4649 20.2536 16.8909 20.1612 17.2257C20.1282 17.3453 20.1016 18.0825 20.1015 18.8831C20.1011 20.253 20.0951 20.3328 19.9804 20.4795C19.81 20.6975 19.4607 20.6975 19.2903 20.4795C19.1742 20.331 19.1696 20.2574 19.1696 18.5274C19.1696 16.5122 19.1503 16.3853 18.7767 15.9462C18.2369 15.3115 17.3074 15.2416 16.6894 15.789C16.168 16.2508 16.1753 16.2125 16.1422 18.6327L16.1131 20.7615L15.9757 20.8734C15.9001 20.9349 15.79 20.9853 15.731 20.9853C15.5732 20.9853 15.3404 20.8661 15.2867 20.7577C15.2609 20.7057 15.2268 17.8951 15.2108 14.512L15.1816 8.36089L15.0556 8.12656C14.8912 7.821 14.5385 7.48187 14.2666 7.36787C13.923 7.22381 13.4244 7.25018 13.0628 7.43149Z" fill="white"/>
</g>
<defs>
<filter id="filter0_d_204_924" x="0" y="0" width="33" height="42" filterUnits="userSpaceOnUse" color-interpolation-filters="sRGB">
<feFlood flood-opacity="0" result="BackgroundImageFix"/>
<feColorMatrix in="SourceAlpha" type="matrix" values="0 0 0 0 0 0 0 0 0 0 0 0 0 0 0 0 0 0 127 0" result="hardAlpha"/>
<feOffset dy="2"/>
<feGaussianBlur stdDeviation="3"/>
<feComposite in2="hardAlpha" operator="out"/>
<feColorMatrix type="matrix" values="0 0 0 0 0.212865 0 0 0 0 0.329153 0 0 0 0 0.8375 0 0 0 1 0"/>
<feBlend mode="normal" in2="BackgroundImageFix" result="effect1_dropShadow_204_924"/>
<feBlend mode="normal" in="SourceGraphic" in2="effect1_dropShadow_204_924" result="shape"/>
</filter>
</defs>
</svg>
