<svg width="33" height="10" viewBox="0 0 33 10" fill="none" xmlns="http://www.w3.org/2000/svg">
<path d="M17.0827 8.81758L16.9918 8.32592L17.0827 8.81758ZM0.503063 3.35455C0.472542 3.0801 0.670284 2.83287 0.944735 2.80235L5.41716 2.30497C5.69161 2.27445 5.93884 2.47219 5.96936 2.74664C5.99989 3.02109 5.80214 3.26832 5.52769 3.29884L1.5522 3.74096L1.99432 7.71645C2.02484 7.9909 1.8271 8.23813 1.55264 8.26865C1.27819 8.29917 1.03097 8.10143 1.00044 7.82698L0.503063 3.35455ZM32 1C32.3507 1.35639 32.3506 1.35651 32.3504 1.35665C32.3503 1.35673 32.3502 1.3569 32.35 1.35705C32.3497 1.35737 32.3493 1.35778 32.3488 1.35828C32.3477 1.35929 32.3463 1.36068 32.3445 1.36243C32.3409 1.36594 32.3358 1.37094 32.3291 1.37737C32.3158 1.39024 32.2964 1.40888 32.2711 1.43295C32.2204 1.48109 32.1458 1.55097 32.0484 1.63994C31.8536 1.81786 31.5674 2.07221 31.1975 2.38163C30.4581 3.00029 29.3834 3.84028 28.0371 4.7303C25.3486 6.50763 21.556 8.49867 17.1736 9.30924L16.9918 8.32592C21.1961 7.54826 24.8621 5.63052 27.4856 3.89611C28.7953 3.03027 29.8399 2.21366 30.5558 1.61467C30.9137 1.31528 31.189 1.07055 31.374 0.901598C31.4665 0.817131 31.5363 0.751632 31.5825 0.707746C31.6057 0.685803 31.6229 0.669267 31.634 0.658466C31.6396 0.653066 31.6437 0.6491 31.6462 0.64661C31.6475 0.645365 31.6484 0.644489 31.6489 0.643987C31.6492 0.643736 31.6493 0.643578 31.6494 0.643515C31.6494 0.643483 31.6494 0.643506 31.6494 0.643491C31.6494 0.643537 31.6493 0.643608 32 1ZM17.1736 9.30924C13.2795 10.0295 9.13545 8.58825 6.01985 7.02253C4.45193 6.23459 3.12208 5.40366 2.1841 4.7698C1.71478 4.45265 1.3427 4.18425 1.08705 3.99442C0.959208 3.89949 0.860415 3.82416 0.79307 3.77215C0.759396 3.74615 0.733578 3.72597 0.715916 3.71208C0.707085 3.70514 0.700293 3.69977 0.695576 3.69603C0.693218 3.69416 0.69138 3.69269 0.690063 3.69165C0.689405 3.69112 0.688877 3.6907 0.688482 3.69039C0.688284 3.69023 0.688087 3.69007 0.687988 3.68999C0.687822 3.68986 0.687691 3.68975 1 3.29929C1.31231 2.90882 1.31224 2.90877 1.31221 2.90874C1.31224 2.90877 1.31224 2.90877 1.31231 2.90882C1.31244 2.90892 1.3127 2.90913 1.31309 2.90944C1.31387 2.91006 1.31517 2.9111 1.31698 2.91254C1.32061 2.91542 1.3263 2.91992 1.33402 2.92598C1.34945 2.93812 1.37297 2.9565 1.40428 2.98068C1.4669 3.02904 1.56068 3.10056 1.68321 3.19155C1.92833 3.37356 2.28828 3.63328 2.74401 3.94125C3.65612 4.55762 4.94845 5.36494 6.46888 6.12901C9.52997 7.66734 13.4273 8.98521 16.9918 8.32592L17.1736 9.30924Z" fill="url(#paint0_linear_204_920)"/>
<defs>
<linearGradient id="paint0_linear_204_920" x1="32" y1="5" x2="1" y2="5" gradientUnits="userSpaceOnUse">
<stop stop-color="#0ACFFE" stop-opacity="0"/>
<stop offset="1" stop-color="#495AFF"/>
</linearGradient>
</defs>
</svg>
