<svg width="40" height="38" viewBox="0 0 40 38" fill="none" xmlns="http://www.w3.org/2000/svg">
<path d="M39.4642 19.6153C39.437 18.5115 39.3551 17.3896 39.1097 16.3129C38.7097 14.5758 37.7642 13.1462 35.9642 12.5762C33.9915 11.952 32.2279 12.5401 30.637 13.7615C30.5551 13.8248 30.4824 13.9515 30.4824 14.042C30.4733 15.2543 30.4733 16.4577 30.4733 17.661C31.0551 17.5434 31.5733 17.3896 32.1006 17.3443C32.8097 17.281 33.4733 17.4258 33.8824 18.0953C34.2915 18.7558 34.546 19.4886 34.5551 20.2577C34.5824 23.2162 34.5824 26.1748 34.5551 29.1243C34.546 30.4272 33.8551 31.2958 32.637 31.712C32.537 31.7481 32.3915 31.8929 32.3915 31.9834C32.3824 33.44 32.4006 34.8967 32.4097 36.3534C32.4097 36.5977 32.5097 36.7062 32.7824 36.7062C35.3733 36.7334 37.9733 34.951 38.8733 32.4991C39.4915 30.8162 39.5642 29.061 39.5551 27.2967C39.537 24.7543 39.537 22.1848 39.4642 19.6153ZM34.337 6.39672C35.6006 6.261 36.8733 6.11624 38.137 5.98053C38.346 5.96243 38.4551 5.90815 38.4551 5.67291C38.446 4.20719 38.4551 2.73243 38.4551 1.19434C36.3915 1.42957 34.4006 1.64672 32.4188 1.88195C30.146 2.14434 27.9188 2.42481 25.646 2.6691C25.5733 3.601 25.5006 4.57815 25.437 5.52815C25.4006 6.12529 25.3733 6.72243 25.346 7.35576C26.6097 7.22005 27.8188 7.09338 29.0279 6.96672C30.8006 6.77672 32.5642 6.58672 34.337 6.39672ZM29.2915 21.4429C29.3551 18.9186 29.4097 16.3943 29.4824 13.8791C29.5188 12.4405 29.5824 11.002 29.6188 9.55434C29.6279 9.1291 29.6188 8.70386 29.6188 8.26053C29.4097 8.26053 29.2642 8.25148 29.1279 8.26053C28.0006 8.31481 26.8733 8.39624 25.737 8.42338C25.337 8.43243 25.246 8.58624 25.237 8.93005C25.2188 9.72624 25.1824 10.5134 25.1551 11.3096C25.037 14.431 24.9188 17.5615 24.8097 20.6829C24.7915 21.0991 24.8097 21.5153 24.8097 22.0039C26.246 21.9586 27.6188 21.9134 29.0006 21.8681C29.3006 21.8591 29.2915 21.6601 29.2915 21.4429ZM31.0551 31.6667C29.9733 31.5491 29.4097 30.5086 29.3733 29.4953C29.3279 28.2739 29.3006 27.0434 29.2824 25.822C29.2824 25.5143 29.1915 25.3877 28.8551 25.3967C27.6551 25.4329 26.446 25.4601 25.237 25.4691C24.9097 25.4691 24.8551 25.6048 24.8642 25.8853C24.8824 26.6634 24.8733 27.4415 24.9006 28.2196C24.937 29.4139 24.9006 30.6262 25.0824 31.8024C25.3279 33.3043 26.0642 34.6343 27.346 35.512C28.4824 36.2901 29.8188 36.5977 31.2824 36.7696C31.2824 35.1048 31.2824 33.5124 31.2733 31.911C31.2824 31.8296 31.146 31.6758 31.0551 31.6667ZM1.03695 18.6291H4.95514C4.95514 17.471 4.93695 16.3672 4.95514 15.2634C5.00059 13.0105 5.63695 12.3139 7.86423 12.0424C7.90968 12.0334 7.94604 11.9881 8.03695 11.9339V8.25148C5.38241 7.95291 2.46423 9.80767 1.50968 12.3862C0.736953 14.422 1.14604 16.5301 1.03695 18.6291ZM7.37332 28.2196C5.62786 28.1472 5.10968 27.5953 5.07332 25.8491C5.04604 24.5191 5.07332 23.1891 5.04604 21.8591C5.03695 21.2981 4.97332 20.7281 4.92786 20.1581H1.05514C1.05514 22.221 0.955135 24.2024 1.07332 26.1748C1.32786 30.2191 3.50059 32.49 7.31877 32.9515C7.85514 33.0148 8.05514 32.8701 8.03695 32.3362C8.00968 31.1872 8.01877 30.0291 8.03695 28.8801C8.04604 28.3824 7.86423 28.2377 7.37332 28.2196ZM17.1097 13.8881C17.1188 14.7115 17.1188 15.5439 17.1279 16.3672C17.1279 16.9281 17.1279 17.4891 17.1279 18.041H21.5824C21.5824 16.132 21.6642 14.3224 21.5551 12.531C21.4642 10.9296 20.6824 9.61767 19.2915 8.731C17.8642 7.81719 16.2733 7.68148 14.637 7.81719C14.4824 7.82624 14.237 8.07053 14.2279 8.21529C14.1915 9.38243 14.2097 10.5586 14.2097 11.762C14.5551 11.7801 14.8006 11.7981 15.046 11.8072C16.537 11.8615 17.0824 12.4134 17.1097 13.8881ZM8.84604 36.851H13.2642V3.86338C11.746 4.02624 10.3006 4.18005 8.84604 4.33386V36.851ZM21.6188 19.6153C20.3188 19.6153 19.1188 19.6334 17.9188 19.6062C17.3551 19.5881 17.1733 19.7872 17.1733 20.3481C17.1915 21.9315 17.137 23.5058 17.146 25.0891C17.1551 27.1067 16.3733 28.2015 14.437 28.3915C14.3733 28.4005 14.3097 28.4548 14.2551 28.482V32.6077C18.0642 32.8158 20.5006 30.7981 21.2733 27.8758C22.0097 25.1615 21.4551 22.402 21.6188 19.6153Z" fill="url(#paint0_linear_204_8)"/>
<defs>
<linearGradient id="paint0_linear_204_8" x1="3.40423" y1="19.0216" x2="39.834" y2="19.0216" gradientUnits="userSpaceOnUse">
<stop offset="0.0344" stop-color="#273580"/>
<stop offset="0.2149" stop-color="#46317C"/>
<stop offset="0.6071" stop-color="#942673"/>
<stop offset="0.8615" stop-color="#CA1E6D"/>
</linearGradient>
</defs>
</svg>
