<svg width="173" height="50" viewBox="0 0 173 50" fill="none" xmlns="http://www.w3.org/2000/svg">
<path d="M165.959 13.5617C166.25 12.8375 170.011 3.46052 170.072 2.47333C168.164 3.01157 165.961 3.86519 164.167 4.79585C164.141 6.95619 164.088 8.83308 162.592 9.12391C161.261 9.38525 160.346 8.3391 160.296 7.03732C160.226 5.25957 161.627 4.78111 162.067 3.63499C161.034 2.40367 160.059 1.10271 158.918 6.67572e-06C157.796 1.17808 156.673 2.35533 155.768 3.789C156.345 4.74424 157.1 5.01789 157.41 6.03211C158.376 9.21323 154.518 10.2455 153.866 7.57883C153.636 6.6367 154.071 5.5176 153.669 4.79585C152.13 4.1847 149.021 2.74614 147.764 2.47333C147.823 3.44659 151.586 12.8367 151.877 13.5617C153.94 12.9547 156.342 12.6 158.917 12.6C161.494 12.6 163.896 12.9547 165.959 13.5617Z" fill="#F14294"/>
<path d="M13.7402 49.7632H17.821V26.0593C17.821 26.0593 17.821 18.6206 10.3388 18.6206C10.3388 18.6206 5.93239 18.1602 4.0811 20.8538V1.47629H3.9987L0 2.94357V26.0593V42.5613V49.7632H4.0811V49.3413V26.736C4.0811 22.6783 8.16186 22.6783 8.16186 22.6783H9.65908C13.7402 22.6783 13.7402 26.736 13.7402 26.736V28.7644V49.2291V49.7632ZM24.8608 33.0933V26.736C24.8608 22.6783 28.942 22.6783 28.942 22.6783H30.4383C34.519 22.6783 34.519 26.736 34.519 26.736V33.0933H24.8608ZM38.6001 42.5613V41.2087H34.519V41.8846C34.519 45.9423 30.4383 45.9423 30.4383 45.9423H28.942C24.8608 45.9423 24.8608 41.8846 24.8608 41.8846V41.2087V37.151H34.519H38.6001V33.0933V26.0593C38.6001 26.0593 38.6001 18.6206 31.118 18.6206H28.2612C28.2612 18.6206 20.7798 18.6206 20.7798 26.0593V33.0933V37.151V42.5613C20.7798 42.5613 20.7798 50 28.2612 50H31.118C31.118 50 38.6001 50 38.6001 42.5613ZM41.5589 49.7632H45.64V1.51481L41.5589 3.01237V49.7632ZM50.2647 49.7632H54.3454V1.47629H54.3333L50.2647 2.96897V49.7632ZM71.0534 41.8682C71.0534 45.9341 66.9643 45.9341 66.9643 45.9341H65.4648C61.3753 45.9341 61.3753 41.8682 61.3753 41.8682V26.6885C61.3753 22.6226 65.4648 22.6226 65.4648 22.6226H66.9643C71.0534 22.6226 71.0534 26.6885 71.0534 26.6885V41.8682ZM75.1426 42.5457V26.0109C75.1426 26.0109 75.1426 18.5567 67.6457 18.5567H64.7835C64.7835 18.5567 57.2863 18.5567 57.2863 26.0109V42.5457C57.2863 42.5457 57.2863 50 64.7835 50H67.6457C67.6457 50 75.1426 50 75.1426 42.5457Z" fill="#F14294"/>
<path d="M86.7939 34.3107L95.0012 18.8975H90.3064L82.1651 34.1665V1.47629H82.0331L78.084 2.92552V49.7632H82.1651V41.2562L84.4374 37.5639L91.0545 49.7632H95.7666L86.7939 34.3107ZM109.329 41.8846C109.329 45.9423 105.248 45.9423 105.248 45.9423H103.751C99.6705 45.9423 99.6705 41.8846 99.6705 41.8846V26.736C99.6705 22.6783 103.751 22.6783 103.751 22.6783H105.248C109.329 22.6783 109.329 26.736 109.329 26.736V41.8846ZM113.41 42.5613V26.0593C113.41 26.0593 113.41 18.6206 105.928 18.6206H103.072C103.072 18.6206 95.5895 18.6206 95.5895 26.0593V42.5613C95.5895 42.5613 95.5895 50 103.072 50H105.928C105.928 50 113.41 50 113.41 42.5613ZM127.361 22.9069L129.533 19.1646C124.803 17.9447 121.592 18.587 120.449 20.8538V18.6206H116.368V49.7632H120.449V26.7352C120.449 20.717 126.592 22.1237 127.361 22.9069ZM133.821 33.0933V26.736C133.821 22.6783 137.902 22.6783 137.902 22.6783H139.398C143.48 22.6783 143.48 26.736 143.48 26.736V33.0933H133.821ZM147.561 42.5613V41.2087H143.48V41.8846C143.48 45.9423 139.398 45.9423 139.398 45.9423H137.902C133.821 45.9423 133.821 41.8846 133.821 41.8846V37.151H143.48H147.561V26.0593C147.561 26.0593 147.561 18.6206 140.079 18.6206H137.222C137.222 18.6206 129.74 18.6206 129.74 26.0593V42.5613C129.74 42.5613 129.74 50 137.222 50H140.079C140.079 50 147.561 50 147.561 42.5613ZM163.978 41.7813C163.978 45.8907 159.845 45.8907 159.845 45.8907H158.329C154.197 45.8907 154.197 41.7813 154.197 41.7813L154.2 36.3531C154.2 36.3531 154.2 32.2413 158.335 32.2413H159.852C159.852 32.2413 163.864 32.2495 163.978 36.19V41.7813ZM173.001 45.8907H172.243C172.243 45.8907 168.11 45.8907 168.11 41.7813V25.7554C168.11 25.7554 168.11 18.2224 160.533 18.2224H157.641C157.641 18.2224 150.222 18.2339 150.077 25.5489H154.278C154.833 22.3399 158.329 22.3318 158.329 22.3318H159.845C163.978 22.3318 163.978 26.441 163.978 26.441V29.7057C162.803 28.2082 160.047 28.1287 160.047 28.1287H157.646C150.064 28.1287 150.064 35.6682 150.064 35.6682V42.4663C150.064 42.4663 150.064 50 157.641 50H160.533C160.533 50 164.729 50 166.692 47.0606C168.421 50 171.555 50 171.555 50H172.099L173.001 45.8907Z" fill="#8A525E"/>
</svg>
