<svg width="60" height="60" viewBox="0 0 60 60" fill="none" xmlns="http://www.w3.org/2000/svg">
<path fill-rule="evenodd" clip-rule="evenodd" d="M27.1327 0.0718295C20.1308 0.791128 13.7592 3.81192 8.80617 8.76059C-2.93539 20.4916 -2.93539 39.5229 8.80617 51.2539C13.5729 56.0163 19.368 58.863 26.3121 59.853C27.7048 60.0515 32.3106 60.0482 33.7568 59.8478C40.5549 58.9053 46.5271 55.9635 51.2104 51.2505C56.6579 45.7684 59.6881 38.7922 59.9786 31.064C60.2923 22.7209 57.1423 14.7132 51.2009 8.75049C46.5942 4.12707 40.7576 1.20772 34.1671 0.23046C32.7334 0.0178175 28.572 -0.0759989 27.1327 0.0718295ZM34.343 4.51431C39.7876 5.50754 44.4186 7.91836 48.2359 11.7469C53.1487 16.674 55.7979 23.0712 55.7979 30.0072C55.7979 39.8824 50.301 48.7354 41.4063 53.1855C37.8628 54.9584 34.0788 55.839 30.0051 55.839C23.0839 55.839 16.6801 53.1788 11.7743 48.2656C7.89803 44.3835 5.49063 39.6899 4.48706 34.0581C4.18857 32.3828 4.18857 27.6317 4.48706 25.9563C5.49063 20.3245 7.89803 15.631 11.7743 11.7489C15.9593 7.55753 21.0202 5.10245 27.1327 4.29826C28.578 4.10817 32.8118 4.23498 34.343 4.51431ZM29.0287 15.8436C27.7143 16.2136 26.7998 17.2941 26.8015 18.4753C26.8038 20.0171 28.0126 21.1817 29.7262 21.293C31.6518 21.4182 33.1754 20.2044 33.168 18.5513C33.1596 16.6565 31.048 15.2753 29.0287 15.8436ZM29.0773 25.09C28.2615 25.2272 27.5648 25.6156 27.2228 26.124L26.9522 26.5265L26.9838 34.4835L27.0155 42.4406L27.412 42.8501C28.0451 43.5042 28.8328 43.792 30.0076 43.7984C30.9056 43.8032 31.0856 43.7648 31.7882 43.4184C33.162 42.741 33.0534 43.5233 33.0534 34.3126V26.3755L32.6946 25.9662C32.0616 25.2442 30.4635 24.8571 29.0773 25.09Z" fill="white"/>
</svg>
