<svg width="25" height="25" viewBox="0 0 25 25" fill="none" xmlns="http://www.w3.org/2000/svg">
<path fill-rule="evenodd" clip-rule="evenodd" d="M4.32758 0.0660126C3.7215 0.197487 3.60474 0.288673 2.0207 1.86846C0.638374 3.24711 0.531467 3.36631 0.369293 3.70925C0.102075 4.27441 0.0353814 4.58146 0.00644797 5.38052C-0.0227797 6.1874 0.0433258 6.72054 0.287789 7.64863C1.7605 13.2399 8.36169 20.5936 14.6798 23.6813C16.5534 24.597 17.968 24.9952 19.3631 24.9999C20.217 25.0028 20.6489 24.9166 21.2406 24.6256C21.6217 24.4381 21.7219 24.3493 23.0974 22.9791C24.6379 21.4448 24.73 21.3288 24.9236 20.6785C25.0255 20.3362 25.0255 19.6942 24.9236 19.3518C24.7481 18.7619 24.6765 18.6762 22.7283 16.7224C21.7 15.6913 20.7264 14.7536 20.5645 14.6388C19.5915 13.9481 18.3422 14.0439 17.5284 14.8715C17.2821 15.1219 17.1874 15.2686 17.0172 15.6624C16.9023 15.9284 16.7487 16.2266 16.6758 16.325C16.2072 16.9581 15.3023 17.3612 14.5326 17.2798C13.3852 17.1583 11.6731 16.1247 10.2229 14.6776C8.46722 12.9257 7.4317 10.9101 7.68425 9.73608C7.80185 9.1894 8.18676 8.61735 8.642 8.3126C8.75312 8.23823 8.98748 8.11644 9.1628 8.04203C9.67212 7.82567 9.79742 7.75473 10.0338 7.54884C10.8499 6.83813 11.0285 5.50793 10.4345 4.56488C10.2597 4.28736 6.87819 0.876077 6.46562 0.561057C6.13671 0.309892 5.70501 0.11647 5.31642 0.0460641C4.94828 -0.0206263 4.70426 -0.0156881 4.32758 0.0660126Z" fill="url(#paint0_linear_204_962)"/>
<defs>
<linearGradient id="paint0_linear_204_962" x1="0" y1="12.5" x2="25" y2="12.5" gradientUnits="userSpaceOnUse">
<stop stop-color="#0ACFFE"/>
<stop offset="1" stop-color="#495AFF"/>
</linearGradient>
</defs>
</svg>
