<svg width="48" height="60" viewBox="0 0 48 60" fill="none" xmlns="http://www.w3.org/2000/svg">
<path fill-rule="evenodd" clip-rule="evenodd" d="M21.8956 0.180487C19.3469 0.638087 17.0577 1.85827 15.2655 3.71417C13.0249 6.03454 11.8721 8.93813 11.8721 12.2613V13.4949H9.37197C6.63523 13.4949 5.88936 13.6112 4.74378 14.2172C3.43498 14.9094 2.20374 16.4507 1.77636 17.9321C1.63196 18.4329 0.000252818 51.2682 1.53349e-07 53.6802C-0.000126179 54.3676 0.0778203 55.2197 0.173075 55.5738C0.734749 57.6611 2.61458 59.4108 4.77208 59.8546C5.7173 60.0491 42.2855 60.0487 43.2279 59.8542C45.4018 59.4056 47.2615 57.6748 47.8269 55.5738C47.9222 55.2197 48.0001 54.3676 48 53.6802C47.9997 51.2682 46.368 18.4329 46.2236 17.9321C45.7963 16.4507 44.565 14.9094 43.2562 14.2172C42.1124 13.6122 41.3635 13.4949 38.6457 13.4949H36.1633L36.0933 11.7762C35.9872 9.16824 35.4044 7.32609 34.047 5.3077C31.4412 1.43304 26.5096 -0.647842 21.8956 0.180487ZM25.7055 4.18277C27.9945 4.65674 30.1199 6.28377 31.1754 8.37016C31.8195 9.64359 32.0801 10.7829 32.0831 12.3387L32.0853 13.4949H24H15.9147L15.9169 12.3387C15.9215 9.87208 16.6822 7.97068 18.3073 6.36265C20.2766 4.41438 22.9785 3.6183 25.7055 4.18277ZM40.9685 17.5508C41.5425 17.7533 41.8965 18.0503 42.1564 18.5475C42.3111 18.8436 42.5021 22.1311 43.1583 35.7968C43.6043 45.0826 43.9529 53.1583 43.9332 53.7427C43.8917 54.9747 43.6998 55.3381 42.8784 55.7407C42.3706 55.9897 42.1547 55.9925 24 55.9925C5.84528 55.9925 5.62937 55.9897 5.12164 55.7407C4.28734 55.3317 4.10795 54.9808 4.06854 53.6802C4.04971 53.0614 4.39738 45.0145 4.84106 35.798C5.73233 17.2848 5.62558 18.4079 6.54794 17.8404L7.00829 17.5572L20.1469 17.4933C27.3731 17.458 34.9056 17.4184 36.8859 17.4049C39.6536 17.3863 40.5979 17.42 40.9685 17.5508ZM13.0395 21.9938C12.0495 22.591 11.8986 23.5462 12.5015 25.399C13.1076 27.2616 13.8746 28.4773 15.4076 30.0055C17.193 31.785 18.7179 32.6603 21.1575 33.3059C22.3544 33.6226 24.8563 33.6896 26.1888 33.4405C30.0866 32.7121 33.2306 30.3797 34.9813 26.9179C35.6135 25.6676 36.0493 24.1249 35.9691 23.4208C35.8548 22.4176 35.0561 21.7444 33.9803 21.7444C32.9259 21.7444 32.2381 22.3176 31.9553 23.4318C31.3918 25.6517 29.9 27.6286 28.0022 28.67C25.5149 30.0353 22.4363 30.015 19.9881 28.6172C19.031 28.0707 17.6959 26.7735 17.1423 25.8522C16.8795 25.4147 16.4942 24.5174 16.286 23.8581C15.9083 22.6615 15.6104 22.2235 14.944 21.8847C14.4982 21.6581 13.5014 21.7152 13.0395 21.9938Z" fill="#F14294"/>
</svg>
