<svg width="106" height="80" viewBox="0 0 106 80" fill="none" xmlns="http://www.w3.org/2000/svg">
<path d="M0.0200462 25.3228C0.0200462 25.3114 0.0187912 25.3 0.0187912 25.2885C0.0187912 11.419 11.3158 0.175781 25.2517 0.175781C39.1876 0.175781 50.4844 11.4188 50.4844 25.2885C50.4844 39.1583 39.1863 50.4013 25.2515 50.4013C22.3874 50.4013 19.6459 49.9044 17.0806 49.029C22.7576 81.441 48.1538 102.343 24.6118 85.1403C-1.49304 66.0639 -0.00916672 26.0548 0.0200462 25.3228Z" fill="#F4F4F4"/>
<path d="M80.7671 50.4011C77.903 50.4011 75.1615 49.9042 72.5949 49.0288C78.2734 81.4408 103.67 102.343 80.1274 85.1401C54.0226 66.0639 55.5062 26.0548 55.5356 25.3228C55.5356 25.3114 55.5344 25.3 55.5344 25.2886C55.5344 11.419 66.8312 0.175781 80.7671 0.175781C94.7032 0.175781 106 11.4188 106 25.2886C106 39.1583 94.702 50.4011 80.7671 50.4011Z" fill="#F4F4F4"/>
</svg>
