<svg width="18" height="11" viewBox="0 0 18 11" fill="none" xmlns="http://www.w3.org/2000/svg">
<path fill-rule="evenodd" clip-rule="evenodd" d="M0.475179 0.0913637C0.133689 0.257679 -0.0569192 0.692135 0.0151215 1.14008C0.0457477 1.33053 0.52728 1.88859 4.32841 6.1391C8.12959 10.3896 8.62866 10.928 8.79897 10.9623C9.28388 11.0598 9.00221 11.3397 13.653 6.1391C18.3025 0.940037 18.0554 1.25094 17.9653 0.714089C17.9181 0.432685 17.6122 0.0906777 17.3606 0.0379072C16.8825 -0.062431 17.1232 -0.298897 12.8891 4.43095L8.9904 8.78631L5.11753 4.45839C2.94844 2.03444 1.18137 0.104171 1.10074 0.0707247C0.90819 -0.00926 0.665328 -0.00125624 0.475179 0.0913637Z" fill="#F14294"/>
</svg>
