<svg width="70" height="70" viewBox="0 0 70 70" fill="none" xmlns="http://www.w3.org/2000/svg">
<rect width="70" height="70" rx="10" fill="white"/>
<path fill-rule="evenodd" clip-rule="evenodd" d="M28.39 15.5457C28.1167 15.6564 27.7365 16.1385 26.0123 18.5601L24.3707 20.8657L21.4193 21.7952C19.3676 22.4412 18.3947 22.7859 18.2276 22.9257C17.7724 23.3067 17.7633 23.3826 17.7633 26.8037V29.9452L15.9184 32.4437C14.7598 34.0128 14.0542 35.0413 14.0215 35.2086C13.9928 35.3551 13.9928 35.595 14.0215 35.7416C14.0542 35.9089 14.7598 36.9374 15.9184 38.5065L17.7633 41.005V44.1465C17.7633 47.5676 17.7724 47.6435 18.2276 48.0245C18.3947 48.1643 19.3675 48.5089 21.4193 49.155L24.3707 50.0844L26.1087 52.5169C27.0647 53.8548 27.9587 55.0562 28.0954 55.1866C28.582 55.6509 28.7702 55.6192 32.0722 54.515L35.0131 53.5317L37.9396 54.5071C39.5492 55.0435 40.9886 55.4824 41.1382 55.4824C41.4909 55.4824 41.8119 55.3126 42.1082 54.969C42.2391 54.8174 43.0839 53.6579 43.9856 52.3924L45.6251 50.0913L48.5795 49.1586C50.6337 48.5099 51.6068 48.1644 51.7733 48.0245C52.2276 47.6429 52.2367 47.5666 52.2367 44.1465V41.005L54.0816 38.5065C55.2402 36.9374 55.9458 35.9089 55.9785 35.7416C56.0072 35.5951 56.0072 35.3552 55.9785 35.2086C55.9458 35.0413 55.2402 34.0128 54.0816 32.4437L52.2367 29.9452V26.8037C52.2367 23.3836 52.2276 23.3073 51.7733 22.9257C51.6068 22.7858 50.6337 22.4403 48.5793 21.7916L45.6249 20.8588L43.889 18.4298C42.9343 17.0938 42.0413 15.894 41.9046 15.7636C41.4239 15.3048 41.2284 15.3381 37.9461 16.4368L35.0234 17.415L32.1184 16.4439C29.2821 15.4956 28.8004 15.3795 28.39 15.5457ZM32.0862 19.0757C33.5744 19.5717 34.8856 19.9776 35 19.9776C35.1144 19.9776 36.4247 19.5721 37.9118 19.0763C39.3989 18.5806 40.6407 18.2024 40.6715 18.2358C40.7023 18.2693 41.4683 19.3339 42.3739 20.6018C43.6328 22.3642 44.0841 22.9364 44.2913 23.0323C44.4403 23.1012 45.7165 23.5192 47.1272 23.9613L49.6922 24.7649V27.6642C49.6922 30.1296 49.7113 30.6004 49.8202 30.8106C49.8905 30.9466 50.6662 32.0296 51.5438 33.2174C52.4215 34.4051 53.1395 35.4211 53.1395 35.4751C53.1395 35.5291 52.4215 36.5451 51.5438 37.7328C50.6662 38.9206 49.8905 40.0036 49.8202 40.1396C49.7113 40.3498 49.6922 40.8206 49.6922 43.2853V46.1837L47.1272 46.9892C45.7165 47.4323 44.4403 47.8507 44.2913 47.9191C44.0834 48.0144 43.6371 48.58 42.3739 50.3484C41.4683 51.6163 40.7023 52.6809 40.6715 52.7144C40.6407 52.7478 39.3989 52.3696 37.9118 51.8739C36.4247 51.3781 35.1144 50.9726 35 50.9726C34.8856 50.9726 33.5753 51.3781 32.0882 51.8739C30.6011 52.3696 29.3593 52.7478 29.3285 52.7144C29.2977 52.6809 28.5316 51.6163 27.6261 50.3484C26.3661 48.5843 25.9161 48.014 25.7087 47.9183C25.5597 47.8495 24.2835 47.4294 22.8728 46.9847L20.3078 46.1762V43.324C20.3078 41.097 20.2832 40.4128 20.1956 40.2033C20.1338 40.0557 19.3581 38.9536 18.4719 37.7541C17.5856 36.5546 16.8604 35.5291 16.8604 35.4751C16.8604 35.4211 17.5856 34.3956 18.4719 33.1961C19.3581 31.9966 20.1338 30.8945 20.1956 30.7469C20.2832 30.5374 20.3078 29.8529 20.3078 27.6242V24.7699L22.8728 23.9638C24.2835 23.5206 25.56 23.1011 25.7095 23.0319C25.9179 22.9354 26.3762 22.354 27.6735 20.5399C28.6043 19.2385 29.369 18.1737 29.373 18.1737C29.3771 18.1737 30.598 18.5796 32.0862 19.0757ZM41.4432 29.7273C41.3078 29.8129 39.295 31.7868 36.9702 34.1139C34.6455 36.441 32.706 38.345 32.6604 38.345C32.6147 38.345 31.7097 37.4754 30.6491 36.4126C29.5886 35.3498 28.6212 34.4273 28.4993 34.3626C27.9648 34.0793 27.2129 34.3166 26.896 34.8686C26.6701 35.2624 26.6611 35.6336 26.8681 36.0319C27.0715 36.4235 31.8478 41.1774 32.1531 41.2921C32.4795 41.4147 32.9202 41.3998 33.224 41.2557C33.629 41.0638 43.0109 31.6434 43.1635 31.2754C43.3304 30.8731 43.3232 30.574 43.138 30.226C42.8122 29.6135 42.0015 29.375 41.4432 29.7273Z" fill="#F14294"/>
</svg>
