<svg width="35" height="35" viewBox="0 0 35 35" fill="none" xmlns="http://www.w3.org/2000/svg">
<path fill-rule="evenodd" clip-rule="evenodd" d="M16.2653 0.0171793C16.1334 0.0326572 15.7326 0.077036 15.3746 0.115868C13.114 0.361047 10.6107 1.2089 8.59075 2.41364C6.01989 3.94683 3.93036 6.03545 2.3965 8.60517C1.2011 10.6078 0.407139 12.935 0.0831954 15.386C-0.0277318 16.2252 -0.0277318 18.793 0.0831954 19.6322C0.407139 22.0832 1.2011 24.4104 2.3965 26.413C3.93036 28.9827 6.01989 31.0714 8.59075 32.6046C10.5942 33.7994 12.9225 34.593 15.3746 34.9168C16.2141 35.0277 18.783 35.0277 19.6226 34.9168C23.8889 34.3534 27.5053 32.4804 30.4566 29.3057C32.0894 27.5493 33.3669 25.3646 34.1508 22.988C34.7688 21.1145 35 19.6228 35 17.5091C35 15.9454 34.934 15.2546 34.6532 13.8793C33.6904 9.16402 30.6595 4.95015 26.4064 2.41364C24.4233 1.23095 22.0586 0.420561 19.6911 0.112238C19.0902 0.0340269 16.6901 -0.0326099 16.2653 0.0171793ZM19.9309 2.23105C21.5686 2.50452 22.7779 2.889 24.2474 3.60358C26.2133 4.55951 27.9549 5.90628 29.2992 7.51015C32.8665 11.7663 33.9139 17.4559 32.0918 22.6798C31.5519 24.2279 30.446 26.1398 29.2992 27.508C26.7538 30.5448 22.8969 32.5518 18.9031 32.9177C14.8065 33.293 10.7079 31.9949 7.49525 29.3046C4.45711 26.7603 2.44926 22.9051 2.08317 18.9131C1.70771 14.8182 3.00643 10.7214 5.69794 7.51015C7.73149 5.08397 10.7141 3.23595 13.8042 2.4874C14.4872 2.322 15.6093 2.13319 16.2653 2.0734C17.0027 2.00615 19.1323 2.09771 19.9309 2.23105ZM11.4818 7.06924C10.8457 7.24039 10.508 7.49776 9.20554 8.80426C8.03687 9.9766 7.91271 10.1249 7.65098 10.6605C7.27141 11.4373 7.15232 11.9126 7.10443 12.8426C6.8105 18.5486 13.6325 26.3358 20.1707 27.7575C20.969 27.9311 22.6847 27.9328 23.3224 27.7606C23.9399 27.5939 24.5559 27.2948 25.0196 26.9367C25.731 26.3871 27.5169 24.5001 27.7299 24.0726C28.0082 23.5145 28.0987 22.9037 27.9938 22.2925C27.8487 21.4467 27.6195 21.1141 26.203 19.6942C25.1446 18.6333 24.8578 18.3843 24.4845 18.2023C23.8482 17.8921 23.251 17.8113 22.5902 17.946C21.9022 18.0863 21.487 18.3474 20.706 19.1314L20.0696 19.7702L17.6564 17.3586L15.2431 14.9472L15.943 14.2249C16.7265 13.4163 16.9753 12.9971 17.0838 12.303C17.1757 11.7149 17.0777 11.0985 16.8009 10.5235C16.622 10.152 16.3757 9.86737 15.3125 8.80303C14.316 7.80547 13.949 7.48283 13.6274 7.32202C12.9123 6.96432 12.1888 6.87906 11.4818 7.06924ZM12.5438 9.08869C12.6499 9.12813 13.2383 9.65979 13.8513 10.2701C15.4597 11.8711 15.4589 11.8495 13.9669 13.3315C13.417 13.8776 12.923 14.4077 12.8691 14.5094C12.7417 14.7495 12.7441 15.1376 12.8746 15.4124C12.9316 15.5325 14.4501 17.0989 16.249 18.8933C19.1177 21.7547 19.5514 22.1615 19.7767 22.2028C20.3425 22.3064 20.4613 22.2346 21.6415 21.0754C22.7786 19.9584 22.9115 19.8717 23.3567 19.9567C23.6394 20.0106 25.8215 22.1578 25.9312 22.49C26.0863 22.9598 26.007 23.0843 24.7779 24.3012C24.1469 24.9258 23.5369 25.4844 23.4222 25.5424C21.892 26.316 19.1384 25.6662 16.4366 23.894C12.1887 21.1077 8.98574 16.2933 9.15875 12.9548C9.21787 11.8146 9.31133 11.643 10.5717 10.3607C11.9219 8.98712 12.0497 8.90466 12.5438 9.08869Z" fill="#F14294"/>
</svg>
