<svg width="42" height="42" viewBox="0 0 42 42" fill="none" xmlns="http://www.w3.org/2000/svg">
<ellipse cx="21.6414" cy="20.2509" rx="16.0554" ry="16.0611" fill="white"/>
<mask id="mask0_166_54" style="mask-type:alpha" maskUnits="userSpaceOnUse" x="5" y="4" width="33" height="33">
<ellipse cx="21.6414" cy="20.2509" rx="16.0554" ry="16.0611" fill="white"/>
</mask>
<g mask="url(#mask0_166_54)">
<ellipse cx="31.1253" cy="11.5837" rx="3.69562" ry="3.69693" fill="#FF8500"/>
</g>
<path fill-rule="evenodd" clip-rule="evenodd" d="M5.20684 0.111341C3.12858 0.553248 1.36643 2.01395 0.512985 4.00216C-0.0445609 5.30134 -0.0152423 4.28797 0.0120232 21.296C0.0396172 38.5341 -0.021566 36.9087 0.652187 38.3128C1.46375 40.0042 3.0651 41.3315 4.9194 41.8496C5.4266 41.9913 6.23011 41.9988 21.0159 41.9988C38.499 41.9988 36.9069 42.0556 38.3096 41.3818C39.6507 40.7374 40.7379 39.6499 41.382 38.3083C42.0556 36.9051 41.9988 38.4977 41.9988 21.0085V5.44026L41.8093 4.78303C41.186 2.62148 39.4612 0.880632 37.2766 0.208365L36.6607 0.0187534L21.2212 0.00396569C7.82687 -0.0089325 5.70558 0.00536231 5.20684 0.111341ZM24.5473 11.5607V14.5183H22.7903C19.8376 14.5183 18.7097 14.7244 17.3861 15.5057C16.5834 15.9796 15.5572 17.0149 15.0823 17.8301C14.1415 19.4449 13.9226 21.4771 14.4951 23.2831C15.0907 25.1622 16.6992 26.824 18.543 27.4654C19.3659 27.7517 19.8769 27.8356 20.8153 27.8384C23.9149 27.8478 26.504 25.8201 27.2689 22.7841C27.4112 22.2193 27.4436 21.7632 27.4809 19.7967L27.5249 17.4758H30.4783H33.4318L33.3945 20.2075C33.3619 22.605 33.3359 23.0357 33.1823 23.7291C32.9308 24.8639 32.6446 25.688 32.1441 26.7182C30.4084 30.2903 27.2658 32.7295 23.2829 33.596C22.0758 33.8586 19.5437 33.8583 18.3347 33.5953C13.8646 32.6231 10.3721 29.5747 8.90821 25.3678C8.37169 23.8258 8.25236 23.07 8.25236 21.2138C8.25236 19.3577 8.37169 18.6018 8.90821 17.0599C10.1701 13.4333 13.0325 10.5697 16.6574 9.3075C17.4355 9.03656 18.6796 8.74097 19.3734 8.6621C19.5315 8.64419 20.7602 8.62357 22.104 8.61634L24.5473 8.6032V11.5607ZM31.656 8.92203C32.2755 9.21204 32.7578 9.68886 33.0653 10.3153C33.2664 10.7248 33.2936 10.8735 33.2936 11.562C33.2936 12.2783 33.2712 12.3893 33.0258 12.8882C32.7143 13.5218 32.2695 13.956 31.6199 14.2607C31.2281 14.4445 31.0463 14.4772 30.4175 14.4772C29.7462 14.4772 29.6252 14.4519 29.1293 14.2077C27.0922 13.2044 26.8843 10.3803 28.7565 9.14073C29.6478 8.55053 30.6939 8.47167 31.656 8.92203Z" fill="url(#paint0_linear_166_54)"/>
<defs>
<linearGradient id="paint0_linear_166_54" x1="41.9659" y1="2.07626e-07" x2="-0.0148659" y2="41.9659" gradientUnits="userSpaceOnUse">
<stop stop-color="#D00088"/>
<stop offset="1" stop-color="#8000DE"/>
</linearGradient>
</defs>
</svg>
