<svg width="42" height="42" viewBox="0 0 42 42" fill="none" xmlns="http://www.w3.org/2000/svg">
<path d="M42 36.1667C42 39.389 39.389 42 36.1667 42H5.83333C2.61217 42 0 39.389 0 36.1667V5.83333C0 2.611 2.61217 0 5.83333 0H36.1667C39.389 0 42 2.611 42 5.83333V36.1667Z" fill="#1976D2"/>
<path d="M34.9265 14.0475C34.9802 13.8713 35.0058 13.708 34.9988 13.5622C34.9813 13.1398 34.6908 12.833 34.0072 12.833H30.9528C30.1817 12.833 29.8258 13.2997 29.6182 13.7675C29.6182 13.7675 27.7142 17.6863 25.5197 20.2705C24.808 21.0183 24.4463 20.9997 24.0613 20.9997C23.8548 20.9997 23.3333 20.75 23.3333 20.0652V14.016C23.3333 13.2063 23.1315 12.833 22.4793 12.833H17.0555C16.5807 12.833 16.3333 13.2063 16.3333 13.5808C16.3333 14.359 17.381 14.5457 17.5 16.7262V20.953C17.5 21.9797 17.3215 22.1663 16.9365 22.1663C15.8982 22.1663 13.8542 18.6663 12.4857 14.079C12.1893 13.176 11.893 12.833 11.1218 12.833H8.03833C7.14817 12.833 7 13.2693 7 13.736C7 14.5772 7.7 19.1248 11.5208 24.3538C14.2917 28.1455 17.9422 30.333 21.1738 30.333C23.1315 30.333 23.3322 29.8348 23.3322 29.0567V25.5893C23.3333 24.6548 23.5468 24.4997 24.1698 24.4997C24.6143 24.4997 25.5208 24.7913 27.2708 26.833C29.2892 29.1873 29.6555 30.333 30.8128 30.333H33.8672C34.5765 30.333 34.9837 30.0355 35 29.458C35.0035 29.311 34.9825 29.1465 34.9347 28.9633C34.7083 28.2913 33.67 26.6487 32.375 25.083C31.6575 24.2162 30.9493 23.3575 30.6238 22.8908C30.4057 22.5863 30.3228 22.3717 30.3333 22.1663C30.3438 21.9505 30.4558 21.7452 30.6238 21.4582C30.5935 21.4582 34.5415 15.9153 34.9265 14.0475Z" fill="white"/>
</svg>
