<svg width="19" height="18" viewBox="0 0 19 18" fill="none" xmlns="http://www.w3.org/2000/svg">
<path d="M10.384 10.7865L11.2935 8.9675C11.385 8.78673 11.538 8.64456 11.725 8.56664C11.912 8.48872 12.1207 8.48016 12.3135 8.5425L17.4135 10.2425C17.5839 10.2981 17.7324 10.4061 17.8377 10.5511C17.9431 10.6961 17.9999 10.8708 18 11.05V15.3C18 15.7509 17.8209 16.1833 17.5021 16.5021C17.1833 16.8209 16.7509 17 16.3 17H14.6C10.9931 17 7.53384 15.5671 4.98335 13.0167C2.43285 10.4662 1 7.00695 1 3.4V1.7C1 0.765003 1.765 2.8335e-06 2.7 2.8335e-06H6.95C7.1282 -0.000457154 7.30203 0.0550989 7.44693 0.158818C7.59184 0.262538 7.70048 0.409175 7.7575 0.578003L9.4575 5.678C9.52215 5.87189 9.51477 6.08258 9.43671 6.27147C9.35866 6.46036 9.21516 6.6148 9.0325 6.7065L7.205 7.616C7.96068 8.93628 9.05522 10.0308 10.3755 10.7865H10.384ZM6.338 1.7H2.7V3.4C2.7 6.55608 3.95375 9.58289 6.18543 11.8146C8.41711 14.0463 11.4439 15.3 14.6 15.3H16.3V11.662L12.475 10.387L11.523 12.308C11.4242 12.5025 11.2544 12.6516 11.0487 12.7244C10.843 12.7972 10.6172 12.7881 10.418 12.699C8.14757 11.6755 6.32827 9.85923 5.301 7.5905C5.21189 7.39133 5.20279 7.16552 5.27557 6.95983C5.34836 6.75413 5.49746 6.5843 5.692 6.4855L7.613 5.5165L6.338 1.7Z" fill="#9A9A9A"/>
</svg>
