<svg width="18" height="18" viewBox="0 0 18 18" fill="none" xmlns="http://www.w3.org/2000/svg">
<path d="M0.9 1.63647H17.1C17.3387 1.63647 17.5676 1.72268 17.7364 1.87611C17.9052 2.02955 18 2.23766 18 2.45466V15.5456C18 15.7626 17.9052 15.9707 17.7364 16.1241C17.5676 16.2775 17.3387 16.3637 17.1 16.3637H0.9C0.661305 16.3637 0.432387 16.2775 0.263604 16.1241C0.0948211 15.9707 0 15.7626 0 15.5456V2.45466C0 2.23766 0.0948211 2.02955 0.263604 1.87611C0.432387 1.72268 0.661305 1.63647 0.9 1.63647ZM16.2 5.10393L9.0648 10.913L1.8 5.08593V14.7274H16.2V5.10393ZM2.2599 3.27284L9.0549 8.72357L15.7518 3.27284H2.2599Z" fill="#9A9A9A"/>
</svg>
