<svg width="14" height="18" viewBox="0 0 14 18" fill="none" xmlns="http://www.w3.org/2000/svg">
<path d="M0 18C0 16.1814 0.737498 14.4372 2.05025 13.1513C3.36301 11.8653 5.14348 11.1429 7 11.1429C8.85652 11.1429 10.637 11.8653 11.9497 13.1513C13.2625 14.4372 14 16.1814 14 18H12.25C12.25 16.636 11.6969 15.3279 10.7123 14.3635C9.72775 13.399 8.39239 12.8571 7 12.8571C5.60761 12.8571 4.27226 13.399 3.28769 14.3635C2.30312 15.3279 1.75 16.636 1.75 18H0ZM7 10.2857C4.09937 10.2857 1.75 7.98429 1.75 5.14286C1.75 2.30143 4.09937 0 7 0C9.90063 0 12.25 2.30143 12.25 5.14286C12.25 7.98429 9.90063 10.2857 7 10.2857ZM7 8.57143C8.93375 8.57143 10.5 7.03714 10.5 5.14286C10.5 3.24857 8.93375 1.71429 7 1.71429C5.06625 1.71429 3.5 3.24857 3.5 5.14286C3.5 7.03714 5.06625 8.57143 7 8.57143Z" fill="#9A9A9A"/>
</svg>
