<svg width="13" height="18" viewBox="0 0 13 18" fill="none" xmlns="http://www.w3.org/2000/svg">
<path fill-rule="evenodd" clip-rule="evenodd" d="M6.04682 0.00849269C5.24252 0.100639 4.78165 0.200315 4.26417 0.393967C2.88577 0.909797 1.73529 1.85691 0.951958 3.12071C0.213819 4.31151 -0.127084 5.85541 0.0429988 7.23705C0.316087 9.45539 1.89565 12.5186 4.51478 15.9089C5.13421 16.7108 5.93051 17.671 6.11302 17.8362C6.35433 18.0546 6.65242 18.0546 6.89373 17.8362C7.07624 17.671 7.87254 16.7108 8.49197 15.9089C10.8493 12.8575 12.3602 10.0853 12.8383 7.9345C12.9613 7.38098 13.0005 7.02 13 6.44541C12.9985 4.7549 12.3222 3.14024 11.1056 1.92204C10.0998 0.915004 8.9146 0.305022 7.52184 0.0775937C7.19203 0.0237273 6.28479 -0.0187748 6.04682 0.00849269ZM7.24088 1.22248C8.48253 1.38995 9.6567 2.02337 10.4968 2.97889C11.5896 4.22186 12.0468 5.87146 11.74 7.46483C11.4183 9.13535 10.3952 11.212 8.69977 13.6353C7.96697 14.6827 6.5766 16.4895 6.50338 16.4895C6.43015 16.4895 5.03978 14.6827 4.30698 13.6353C2.61159 11.212 1.58843 9.13535 1.26673 7.46483C0.837749 5.23692 1.91577 2.9601 3.93675 1.82563C4.89136 1.28978 6.10182 1.06883 7.24088 1.22248ZM5.99415 3.27823C5.62416 3.33892 5.3876 3.4146 5.04318 3.5824C4.25156 3.96808 3.58914 4.77439 3.34214 5.65286C3.24813 5.98732 3.21262 6.65954 3.26966 7.02485C3.43223 8.06612 4.1153 8.98188 5.08104 9.45335C5.65061 9.73137 6.23134 9.83611 6.82823 9.76838C7.29117 9.71585 7.52609 9.64844 7.92571 9.45335C8.89146 8.98188 9.57453 8.06612 9.73709 7.02485C9.79402 6.66038 9.75859 5.98753 9.66489 5.65286C9.42053 4.78012 8.75175 3.96629 7.96357 3.58247C7.31695 3.26761 6.669 3.16751 5.99415 3.27823ZM7.18581 4.52117C7.70175 4.70779 8.13256 5.08647 8.36389 5.5566C8.59673 6.02992 8.65798 6.46068 8.55898 6.92884C8.45886 7.40209 8.19602 7.83633 7.82249 8.14556C7.32085 8.56084 6.62355 8.70819 5.96201 8.53871C5.20108 8.34372 4.61536 7.721 4.44777 6.92884C4.38382 6.62643 4.3841 6.40196 4.44886 6.09575C4.61641 5.30331 5.22113 4.66648 5.99415 4.46833C6.26646 4.39849 6.92783 4.42783 7.18581 4.52117Z" fill="#9A9A9A"/>
</svg>
